<svg width="20" height="20" viewBox="0 0 20 20" fill="none" xmlns="http://www.w3.org/2000/svg">
<path d="M10 0.4375C8.10872 0.4375 6.25991 0.998331 4.68736 2.04907C3.11482 3.09981 1.88917 4.59327 1.16541 6.34059C0.441643 8.08791 0.252274 10.0106 0.621245 11.8656C0.990216 13.7205 1.90096 15.4244 3.2383 16.7617C4.57564 18.099 6.27951 19.0098 8.13445 19.3788C9.9894 19.7477 11.9121 19.5584 13.6594 18.8346C15.4067 18.1108 16.9002 16.8852 17.9509 15.3126C19.0017 13.7401 19.5625 11.8913 19.5625 10C19.5595 7.46478 18.5511 5.03425 16.7584 3.24158C14.9658 1.44891 12.5352 0.440477 10 0.4375ZM10 18.4375C8.33122 18.4375 6.69992 17.9426 5.31238 17.0155C3.92484 16.0884 2.84339 14.7706 2.20477 13.2289C1.56616 11.6871 1.39907 9.99064 1.72463 8.35393C2.05019 6.71721 2.85379 5.21379 4.03379 4.03379C5.2138 2.85378 6.71722 2.05019 8.35393 1.72462C9.99064 1.39906 11.6871 1.56615 13.2289 2.20477C14.7706 2.84338 16.0884 3.92484 17.0155 5.31238C17.9427 6.69992 18.4375 8.33122 18.4375 10C18.435 12.237 17.5453 14.3817 15.9635 15.9635C14.3817 17.5453 12.237 18.435 10 18.4375ZM14.1475 11.1025C14.2028 11.154 14.2471 11.2161 14.2778 11.2851C14.3086 11.3541 14.3251 11.4286 14.3264 11.5041C14.3278 11.5796 14.3139 11.6547 14.2856 11.7247C14.2573 11.7947 14.2152 11.8584 14.1618 11.9118C14.1084 11.9652 14.0447 12.0073 13.9747 12.0356C13.9047 12.0639 13.8296 12.0778 13.7541 12.0764C13.6786 12.0751 13.6041 12.0586 13.5351 12.0278C13.4661 11.9971 13.404 11.9528 13.3525 11.8975L10 8.54594L6.6475 11.8975C6.54087 11.9969 6.39984 12.051 6.25411 12.0484C6.10839 12.0458 5.96935 11.9868 5.86629 11.8837C5.76323 11.7807 5.70419 11.6416 5.70162 11.4959C5.69905 11.3502 5.75314 11.2091 5.8525 11.1025L9.6025 7.3525C9.70797 7.24716 9.85094 7.18799 10 7.18799C10.1491 7.18799 10.292 7.24716 10.3975 7.3525L14.1475 11.1025Z" fill="white"/>
</svg>
