<svg width="28" height="28" viewBox="0 0 28 28" fill="none" xmlns="http://www.w3.org/2000/svg">
<path d="M3.125 24.503V24.5V7C3.125 6.66848 3.2567 6.35054 3.49112 6.11612C3.72554 5.8817 4.04348 5.75 4.375 5.75H23.625C23.9565 5.75 24.2745 5.8817 24.5089 6.11612C24.7433 6.35054 24.875 6.66848 24.875 7V21C24.875 21.3315 24.7433 21.6495 24.5089 21.8839C24.2745 22.1183 23.9565 22.25 23.625 22.25H9.07813H8.89238L8.75169 22.3713L5.18908 25.4419L5.18902 25.442L5.18058 25.4485L5.17237 25.4555C4.94966 25.6447 4.6672 25.749 4.37499 25.75C4.19282 25.7496 4.01293 25.7096 3.84778 25.6327L3.84473 25.6313C3.62884 25.5325 3.44607 25.3735 3.3184 25.1733C3.19071 24.9732 3.12356 24.7404 3.125 24.503ZM10.5 17.125H17.5C17.8647 17.125 18.2144 16.9801 18.4723 16.7223C18.7301 16.4644 18.875 16.1147 18.875 15.75C18.875 15.3853 18.7301 15.0356 18.4723 14.7777C18.2144 14.5199 17.8647 14.375 17.5 14.375H10.5C10.1353 14.375 9.78559 14.5199 9.52773 14.7777C9.26987 15.0356 9.125 15.3853 9.125 15.75C9.125 16.1147 9.26987 16.4644 9.52773 16.7223C9.78559 16.9801 10.1353 17.125 10.5 17.125ZM10.5 13.625H17.5C17.8647 13.625 18.2144 13.4801 18.4723 13.2223C18.7301 12.9644 18.875 12.6147 18.875 12.25C18.875 11.8853 18.7301 11.5356 18.4723 11.2777C18.2144 11.0199 17.8647 10.875 17.5 10.875H10.5C10.1353 10.875 9.78559 11.0199 9.52773 11.2777C9.26987 11.5356 9.125 11.8853 9.125 12.25C9.125 12.6147 9.26987 12.9644 9.52773 13.2223C9.78559 13.4801 10.1353 13.625 10.5 13.625Z" fill="#C0AEE7" stroke="#C0AEE7"/>
</svg>
