<svg width="29" height="29" viewBox="0 0 29 29" fill="none" xmlns="http://www.w3.org/2000/svg">
<path d="M23.5625 15.6328H5.4375C5.01688 15.6328 4.61349 15.7999 4.31607 16.0973C4.01865 16.3947 3.85156 16.7981 3.85156 17.2188V21.75C3.85156 22.1706 4.01865 22.574 4.31607 22.8714C4.61349 23.1688 5.01688 23.3359 5.4375 23.3359H23.5625C23.9831 23.3359 24.3865 23.1688 24.6839 22.8714C24.9813 22.574 25.1484 22.1706 25.1484 21.75V17.2188C25.1484 16.7981 24.9813 16.3947 24.6839 16.0973C24.3865 15.7999 23.9831 15.6328 23.5625 15.6328ZM23.7891 21.75C23.7891 21.8101 23.7652 21.8677 23.7227 21.9102C23.6802 21.9527 23.6226 21.9766 23.5625 21.9766H5.4375C5.37741 21.9766 5.31978 21.9527 5.2773 21.9102C5.23481 21.8677 5.21094 21.8101 5.21094 21.75V17.2188C5.21094 17.1587 5.23481 17.101 5.2773 17.0585C5.31978 17.0161 5.37741 16.9922 5.4375 16.9922H23.5625C23.6226 16.9922 23.6802 17.0161 23.7227 17.0585C23.7652 17.101 23.7891 17.1587 23.7891 17.2188V21.75ZM23.5625 5.66406H5.4375C5.01688 5.66406 4.61349 5.83115 4.31607 6.12857C4.01865 6.42599 3.85156 6.82938 3.85156 7.25V11.7812C3.85156 11.9895 3.89258 12.1957 3.97228 12.3882C4.05199 12.5806 4.16881 12.7554 4.31607 12.9027C4.46334 13.0499 4.63817 13.1668 4.83059 13.2465C5.023 13.3262 5.22923 13.3672 5.4375 13.3672H23.5625C23.7708 13.3672 23.977 13.3262 24.1694 13.2465C24.3618 13.1668 24.5367 13.0499 24.6839 12.9027C24.8312 12.7554 24.948 12.5806 25.0277 12.3882C25.1074 12.1957 25.1484 11.9895 25.1484 11.7812V7.25C25.1484 6.82938 24.9813 6.42599 24.6839 6.12857C24.3865 5.83115 23.9831 5.66406 23.5625 5.66406ZM23.7891 11.7812C23.7891 11.8413 23.7652 11.899 23.7227 11.9415C23.6802 11.9839 23.6226 12.0078 23.5625 12.0078H5.4375C5.37741 12.0078 5.31978 11.9839 5.2773 11.9415C5.23481 11.899 5.21094 11.8413 5.21094 11.7812V7.25C5.21094 7.18991 5.23481 7.13228 5.2773 7.0898C5.31978 7.04731 5.37741 7.02344 5.4375 7.02344H23.5625C23.6226 7.02344 23.6802 7.04731 23.7227 7.0898C23.7652 7.13228 23.7891 7.18991 23.7891 7.25V11.7812Z" fill="white"/>
</svg>
