<svg width="28" height="28" viewBox="0 0 28 28" fill="none" xmlns="http://www.w3.org/2000/svg">
<path d="M23.625 5.46875H4.37499C3.96888 5.46875 3.5794 5.63008 3.29223 5.91724C3.00507 6.20441 2.84374 6.59389 2.84374 7V24.5C2.84216 24.7919 2.92479 25.0781 3.08173 25.3243C3.23866 25.5705 3.46325 25.7662 3.72859 25.888C3.93115 25.9819 4.15169 26.0308 4.37499 26.0312C4.73572 26.0314 5.08472 25.9031 5.35937 25.6692L5.36593 25.6637L8.9939 22.5312H23.625C24.0311 22.5312 24.4206 22.3699 24.7077 22.0828C24.9949 21.7956 25.1562 21.4061 25.1562 21V7C25.1562 6.59389 24.9949 6.20441 24.7077 5.91724C24.4206 5.63008 24.0311 5.46875 23.625 5.46875ZM23.8437 21C23.8437 21.058 23.8207 21.1137 23.7797 21.1547C23.7386 21.1957 23.683 21.2188 23.625 21.2188H8.74999C8.59255 21.2188 8.44038 21.2755 8.32124 21.3784L4.5128 24.6673C4.48087 24.6933 4.44229 24.7096 4.40147 24.7146C4.36066 24.7196 4.31926 24.713 4.28204 24.6955C4.24482 24.678 4.21327 24.6504 4.19102 24.6158C4.16877 24.5813 4.15672 24.5411 4.15624 24.5V7C4.15624 6.94198 4.17929 6.88634 4.22031 6.84532C4.26134 6.8043 4.31698 6.78125 4.37499 6.78125H23.625C23.683 6.78125 23.7386 6.8043 23.7797 6.84532C23.8207 6.88634 23.8437 6.94198 23.8437 7V21ZM18.1562 12.25C18.1562 12.424 18.0871 12.591 17.964 12.714C17.841 12.8371 17.674 12.9062 17.5 12.9062H10.5C10.3259 12.9062 10.159 12.8371 10.036 12.714C9.91288 12.591 9.84374 12.424 9.84374 12.25C9.84374 12.076 9.91288 11.909 10.036 11.786C10.159 11.6629 10.3259 11.5938 10.5 11.5938H17.5C17.674 11.5938 17.841 11.6629 17.964 11.786C18.0871 11.909 18.1562 12.076 18.1562 12.25ZM18.1562 15.75C18.1562 15.924 18.0871 16.091 17.964 16.214C17.841 16.3371 17.674 16.4062 17.5 16.4062H10.5C10.3259 16.4062 10.159 16.3371 10.036 16.214C9.91288 16.091 9.84374 15.924 9.84374 15.75C9.84374 15.576 9.91288 15.409 10.036 15.286C10.159 15.1629 10.3259 15.0938 10.5 15.0938H17.5C17.674 15.0938 17.841 15.1629 17.964 15.286C18.0871 15.409 18.1562 15.576 18.1562 15.75Z" fill="black"/>
</svg>
