<svg width="83" height="22" viewBox="0 0 83 22" fill="none" xmlns="http://www.w3.org/2000/svg">
<path d="M5.094 16.308C4.19933 16.308 3.367 16.077 2.597 15.615C1.83433 15.1457 1.21467 14.4893 0.738 13.646C0.268667 12.7953 0.034 11.798 0.034 10.654C0.034 9.444 0.268667 8.421 0.738 7.585C1.21467 6.74167 1.83433 6.10367 2.597 5.671C3.367 5.23833 4.19933 5.022 5.094 5.022C5.79067 5.022 6.403 5.13567 6.931 5.363C7.46633 5.583 7.921 5.88367 8.295 6.265C8.669 6.639 8.96233 7.057 9.175 7.519C9.38767 7.981 9.52333 8.44667 9.582 8.916L6.964 8.982C6.84667 8.51267 6.62667 8.124 6.304 7.816C5.98867 7.508 5.578 7.354 5.072 7.354C4.654 7.354 4.26167 7.47133 3.895 7.706C3.52833 7.93333 3.22767 8.289 2.993 8.773C2.76567 9.257 2.652 9.884 2.652 10.654C2.652 11.3873 2.75833 11.9997 2.971 12.491C3.191 12.975 3.48433 13.3417 3.851 13.591C4.21767 13.833 4.62467 13.954 5.072 13.954C5.732 13.954 6.21233 13.7963 6.513 13.481C6.81367 13.1583 6.964 12.7293 6.964 12.194H9.582C9.582 12.9493 9.40967 13.6387 9.065 14.262C8.72033 14.8853 8.21433 15.384 7.547 15.758C6.87967 16.1247 6.062 16.308 5.094 16.308ZM14.4505 16V0.907999H17.0465V16H14.4505ZM27.1157 16.308C26.1403 16.308 25.2567 16.099 24.4647 15.681C23.68 15.263 23.0567 14.6397 22.5947 13.811C22.1327 12.975 21.9017 11.93 21.9017 10.676C21.9017 9.4 22.1327 8.344 22.5947 7.508C23.0567 6.672 23.68 6.04867 24.4647 5.638C25.2567 5.22733 26.1403 5.022 27.1157 5.022C28.0763 5.022 28.9453 5.22733 29.7227 5.638C30.5073 6.04867 31.1307 6.672 31.5927 7.508C32.0547 8.344 32.2857 9.4 32.2857 10.676C32.2857 11.93 32.0547 12.975 31.5927 13.811C31.1307 14.6397 30.5073 15.263 29.7227 15.681C28.9453 16.099 28.0763 16.308 27.1157 16.308ZM27.0277 14.042C27.541 14.042 27.9957 13.9173 28.3917 13.668C28.795 13.4113 29.1103 13.0337 29.3377 12.535C29.5723 12.0363 29.6897 11.4167 29.6897 10.676C29.6897 9.54667 29.466 8.696 29.0187 8.124C28.5787 7.552 27.9737 7.266 27.2037 7.266C26.683 7.266 26.221 7.39433 25.8177 7.651C25.4143 7.90033 25.0953 8.278 24.8607 8.784C24.6333 9.29 24.5197 9.92067 24.5197 10.676C24.5197 11.7907 24.7433 12.6303 25.1907 13.195C25.6453 13.7597 26.2577 14.042 27.0277 14.042ZM44.2406 5.286H46.8366V16H44.2406V5.286ZM36.9146 5.286H39.5106V11.842C39.5106 12.5387 39.6829 13.063 40.0276 13.415C40.3723 13.7597 40.8453 13.932 41.4466 13.932C41.9599 13.932 42.4256 13.8 42.8436 13.536C43.2689 13.2647 43.6063 12.8687 43.8556 12.348C44.1123 11.82 44.2406 11.1673 44.2406 10.39H44.9446C44.9446 11.6953 44.7759 12.777 44.4386 13.635C44.1013 14.493 43.6356 15.1347 43.0416 15.56C42.4476 15.9853 41.7619 16.198 40.9846 16.198C40.2219 16.198 39.5326 16.0623 38.9166 15.791C38.3006 15.5197 37.8129 15.0833 37.4536 14.482C37.0943 13.8807 36.9146 13.0887 36.9146 12.106V5.286ZM56.6256 16.308C55.7309 16.308 54.9132 16.0733 54.1726 15.604C53.4392 15.1273 52.8526 14.4637 52.4126 13.613C51.9799 12.755 51.7636 11.754 51.7636 10.61C51.7636 9.48067 51.9726 8.498 52.3906 7.662C52.8159 6.81867 53.3806 6.16967 54.0846 5.715C54.7959 5.253 55.5842 5.022 56.4496 5.022C57.2416 5.022 57.9272 5.21267 58.5066 5.594C59.0859 5.968 59.5296 6.52533 59.8376 7.266C60.1456 8.00667 60.2996 8.916 60.2996 9.994H59.4856C59.4856 9.43667 59.3719 8.96367 59.1446 8.575C58.9172 8.179 58.6166 7.87833 58.2426 7.673C57.8759 7.46033 57.4762 7.354 57.0436 7.354C56.5229 7.354 56.0609 7.48967 55.6576 7.761C55.2616 8.03233 54.9499 8.41367 54.7226 8.905C54.4952 9.389 54.3816 9.95733 54.3816 10.61C54.3816 11.2847 54.4952 11.8713 54.7226 12.37C54.9499 12.8687 55.2616 13.2573 55.6576 13.536C56.0609 13.8147 56.5156 13.954 57.0216 13.954C57.4322 13.954 57.8246 13.844 58.1986 13.624C58.5799 13.3967 58.8879 13.0813 59.1226 12.678C59.3646 12.2747 59.4856 11.8053 59.4856 11.27H60.2996C60.2996 12.392 60.1309 13.327 59.7936 14.075C59.4636 14.8157 59.0199 15.373 58.4626 15.747C57.9052 16.121 57.2929 16.308 56.6256 16.308ZM59.9696 16L59.4856 13.36V0.907999H62.1036V16H59.9696ZM66.3332 5.33H69.2812L72.1192 13.734H71.6572L74.0992 5.33H76.7392L72.6472 17.936C72.2292 19.1973 71.7122 20.1103 71.0962 20.675C70.4876 21.2397 69.7432 21.522 68.8632 21.522C68.3572 21.522 67.8622 21.4633 67.3782 21.346C66.9016 21.236 66.4139 21.06 65.9152 20.818V18.53C66.3186 18.7793 66.7072 18.9627 67.0812 19.08C67.4626 19.1973 67.8439 19.256 68.2252 19.256C68.5699 19.256 68.8706 19.1607 69.1272 18.97C69.3912 18.7867 69.6186 18.5263 69.8092 18.189C69.9999 17.859 70.1612 17.474 70.2932 17.034L70.6232 16L66.3332 5.33ZM79.2892 14.482C79.2892 13.9833 79.4578 13.5653 79.7952 13.228C80.1325 12.8907 80.5652 12.722 81.0932 12.722C81.6212 12.722 82.0612 12.8907 82.4132 13.228C82.7652 13.5653 82.9412 13.9833 82.9412 14.482C82.9412 14.9733 82.7652 15.384 82.4132 15.714C82.0612 16.0367 81.6212 16.198 81.0932 16.198C80.5652 16.198 80.1325 16.033 79.7952 15.703C79.4578 15.373 79.2892 14.966 79.2892 14.482Z" fill="black"/>
</svg>
