<svg width="106" height="28" viewBox="0 0 106 28" fill="none" xmlns="http://www.w3.org/2000/svg">
<path d="M6.756 20.392C5.61733 20.392 4.558 20.098 3.578 19.51C2.60733 18.9127 1.81867 18.0773 1.212 17.004C0.614667 15.9213 0.316 14.652 0.316 13.196C0.316 11.656 0.614667 10.354 1.212 9.29C1.81867 8.21667 2.60733 7.40467 3.578 6.854C4.558 6.30333 5.61733 6.028 6.756 6.028C7.64267 6.028 8.422 6.17267 9.094 6.462C9.77533 6.742 10.354 7.12467 10.83 7.61C11.306 8.086 11.6793 8.618 11.95 9.206C12.2207 9.794 12.3933 10.3867 12.468 10.984L9.136 11.068C8.98667 10.4707 8.70667 9.976 8.296 9.584C7.89467 9.192 7.372 8.996 6.728 8.996C6.196 8.996 5.69667 9.14533 5.23 9.444C4.76333 9.73333 4.38067 10.186 4.082 10.802C3.79267 11.418 3.648 12.216 3.648 13.196C3.648 14.1293 3.78333 14.9087 4.054 15.534C4.334 16.15 4.70733 16.6167 5.174 16.934C5.64067 17.242 6.15867 17.396 6.728 17.396C7.568 17.396 8.17933 17.1953 8.562 16.794C8.94467 16.3833 9.136 15.8373 9.136 15.156H12.468C12.468 16.1173 12.2487 16.9947 11.81 17.788C11.3713 18.5813 10.7273 19.216 9.878 19.692C9.02867 20.1587 7.988 20.392 6.756 20.392ZM18.6643 20V0.791999H21.9683V20H18.6643ZM34.7836 20.392C33.5422 20.392 32.4176 20.126 31.4096 19.594C30.4109 19.062 29.6176 18.2687 29.0296 17.214C28.4416 16.15 28.1476 14.82 28.1476 13.224C28.1476 11.6 28.4416 10.256 29.0296 9.192C29.6176 8.128 30.4109 7.33467 31.4096 6.812C32.4176 6.28933 33.5422 6.028 34.7836 6.028C36.0062 6.028 37.1122 6.28933 38.1016 6.812C39.1002 7.33467 39.8936 8.128 40.4816 9.192C41.0696 10.256 41.3636 11.6 41.3636 13.224C41.3636 14.82 41.0696 16.15 40.4816 17.214C39.8936 18.2687 39.1002 19.062 38.1016 19.594C37.1122 20.126 36.0062 20.392 34.7836 20.392ZM34.6716 17.508C35.3249 17.508 35.9036 17.3493 36.4076 17.032C36.9209 16.7053 37.3222 16.2247 37.6116 15.59C37.9102 14.9553 38.0596 14.1667 38.0596 13.224C38.0596 11.7867 37.7749 10.704 37.2056 9.976C36.6456 9.248 35.8756 8.884 34.8956 8.884C34.2329 8.884 33.6449 9.04733 33.1316 9.374C32.6182 9.69133 32.2122 10.172 31.9136 10.816C31.6242 11.46 31.4796 12.2627 31.4796 13.224C31.4796 14.6427 31.7642 15.7113 32.3336 16.43C32.9122 17.1487 33.6916 17.508 34.6716 17.508ZM56.5789 6.364H59.8829V20H56.5789V6.364ZM47.2549 6.364H50.5589V14.708C50.5589 15.5947 50.7783 16.262 51.2169 16.71C51.6556 17.1487 52.2576 17.368 53.0229 17.368C53.6763 17.368 54.2689 17.2 54.8009 16.864C55.3423 16.5187 55.7716 16.0147 56.0889 15.352C56.4156 14.68 56.5789 13.8493 56.5789 12.86H57.4749C57.4749 14.5213 57.2603 15.898 56.8309 16.99C56.4016 18.082 55.8089 18.8987 55.0529 19.44C54.2969 19.9813 53.4243 20.252 52.4349 20.252C51.4643 20.252 50.5869 20.0793 49.8029 19.734C49.0189 19.3887 48.3983 18.8333 47.9409 18.068C47.4836 17.3027 47.2549 16.2947 47.2549 15.044V6.364ZM72.3416 20.392C71.203 20.392 70.1623 20.0933 69.2196 19.496C68.2863 18.8893 67.5396 18.0447 66.9796 16.962C66.429 15.87 66.1536 14.596 66.1536 13.14C66.1536 11.7027 66.4196 10.452 66.9516 9.388C67.493 8.31467 68.2116 7.48867 69.1076 6.91C70.013 6.322 71.0163 6.028 72.1176 6.028C73.1256 6.028 73.9983 6.27067 74.7356 6.756C75.473 7.232 76.0376 7.94133 76.4296 8.884C76.8216 9.82667 77.0176 10.984 77.0176 12.356H75.9816C75.9816 11.6467 75.837 11.0447 75.5476 10.55C75.2583 10.046 74.8756 9.66333 74.3996 9.402C73.933 9.13133 73.4243 8.996 72.8736 8.996C72.211 8.996 71.623 9.16867 71.1096 9.514C70.6056 9.85933 70.209 10.3447 69.9196 10.97C69.6303 11.586 69.4856 12.3093 69.4856 13.14C69.4856 13.9987 69.6303 14.7453 69.9196 15.38C70.209 16.0147 70.6056 16.5093 71.1096 16.864C71.623 17.2187 72.2016 17.396 72.8456 17.396C73.3683 17.396 73.8676 17.256 74.3436 16.976C74.829 16.6867 75.221 16.2853 75.5196 15.772C75.8276 15.2587 75.9816 14.6613 75.9816 13.98H77.0176C77.0176 15.408 76.803 16.598 76.3736 17.55C75.9536 18.4927 75.389 19.202 74.6796 19.678C73.9703 20.154 73.191 20.392 72.3416 20.392ZM76.5976 20L75.9816 16.64V0.791999H79.3136V20H76.5976ZM84.6968 6.42H88.4488L92.0608 17.116H91.4728L94.5808 6.42H97.9408L92.7328 22.464C92.2008 24.0693 91.5428 25.2313 90.7588 25.95C89.9842 26.6687 89.0368 27.028 87.9168 27.028C87.2728 27.028 86.6428 26.9533 86.0268 26.804C85.4202 26.664 84.7995 26.44 84.1648 26.132V23.22C84.6782 23.5373 85.1728 23.7707 85.6488 23.92C86.1342 24.0693 86.6195 24.144 87.1048 24.144C87.5435 24.144 87.9262 24.0227 88.2528 23.78C88.5888 23.5467 88.8782 23.2153 89.1208 22.786C89.3635 22.366 89.5688 21.876 89.7368 21.316L90.1568 20L84.6968 6.42ZM101.186 18.068C101.186 17.4333 101.401 16.9013 101.83 16.472C102.26 16.0427 102.81 15.828 103.482 15.828C104.154 15.828 104.714 16.0427 105.162 16.472C105.61 16.9013 105.834 17.4333 105.834 18.068C105.834 18.6933 105.61 19.216 105.162 19.636C104.714 20.0467 104.154 20.252 103.482 20.252C102.81 20.252 102.26 20.042 101.83 19.622C101.401 19.202 101.186 18.684 101.186 18.068Z" fill="white"/>
</svg>
