<svg width="40" height="40" viewBox="0 0 40 40" fill="none" xmlns="http://www.w3.org/2000/svg">
<path d="M37.5001 15C37.5001 15.3315 37.3684 15.6495 37.1339 15.8839C36.8995 16.1183 36.5816 16.25 36.2501 16.25H33.7501V18.75C33.7501 19.0815 33.6184 19.3995 33.3839 19.6339C33.1495 19.8683 32.8316 20 32.5001 20C32.1685 20 31.8506 19.8683 31.6162 19.6339C31.3818 19.3995 31.2501 19.0815 31.2501 18.75V16.25H28.7501C28.4185 16.25 28.1006 16.1183 27.8662 15.8839C27.6318 15.6495 27.5001 15.3315 27.5001 15C27.5001 14.6685 27.6318 14.3505 27.8662 14.1161C28.1006 13.8817 28.4185 13.75 28.7501 13.75H31.2501V11.25C31.2501 10.9185 31.3818 10.6005 31.6162 10.3661C31.8506 10.1317 32.1685 10 32.5001 10C32.8316 10 33.1495 10.1317 33.3839 10.3661C33.6184 10.6005 33.7501 10.9185 33.7501 11.25V13.75H36.2501C36.5816 13.75 36.8995 13.8817 37.1339 14.1161C37.3684 14.3505 37.5001 14.6685 37.5001 15ZM22.5001 8.75H23.7501V10C23.7501 10.3315 23.8818 10.6495 24.1162 10.8839C24.3506 11.1183 24.6685 11.25 25.0001 11.25C25.3316 11.25 25.6495 11.1183 25.8839 10.8839C26.1184 10.6495 26.2501 10.3315 26.2501 10V8.75H27.5001C27.8316 8.75 28.1495 8.6183 28.3839 8.38388C28.6184 8.14946 28.7501 7.83152 28.7501 7.5C28.7501 7.16848 28.6184 6.85054 28.3839 6.61612C28.1495 6.3817 27.8316 6.25 27.5001 6.25H26.2501V5C26.2501 4.66848 26.1184 4.35054 25.8839 4.11612C25.6495 3.8817 25.3316 3.75 25.0001 3.75C24.6685 3.75 24.3506 3.8817 24.1162 4.11612C23.8818 4.35054 23.7501 4.66848 23.7501 5V6.25H22.5001C22.1685 6.25 21.8506 6.3817 21.6162 6.61612C21.3818 6.85054 21.2501 7.16848 21.2501 7.5C21.2501 7.83152 21.3818 8.14946 21.6162 8.38388C21.8506 8.6183 22.1685 8.75 22.5001 8.75ZM32.6782 23.4891C30.4611 23.9271 28.1702 23.8123 26.0079 23.1549C23.8456 22.4975 21.8786 21.3176 20.2805 19.7195C18.6825 18.1215 17.5026 16.1544 16.8452 13.9922C16.1877 11.8299 16.073 9.53901 16.511 7.32188C16.5539 7.10429 16.5382 6.87921 16.4654 6.66973C16.3926 6.46024 16.2654 6.27389 16.0968 6.1298C15.9282 5.98571 15.7243 5.88906 15.506 5.84978C15.2878 5.81049 15.063 5.82998 14.8548 5.90625C12.4878 6.77177 10.377 8.21972 8.71743 10.1164C7.05784 12.0131 5.90289 14.2974 5.35924 16.7583C4.8156 19.2192 4.90078 21.7775 5.60692 24.1968C6.31307 26.6161 7.61741 28.8185 9.3995 30.6006C11.1816 32.3827 13.384 33.687 15.8033 34.3931C18.2226 35.0993 20.7808 35.1845 23.2418 34.6408C25.7027 34.0972 27.987 32.9422 29.8836 31.2826C31.7803 29.623 33.2283 27.5123 34.0938 25.1453C34.1701 24.9371 34.1896 24.7123 34.1503 24.494C34.111 24.2757 34.0144 24.0719 33.8703 23.9033C33.7262 23.7347 33.5398 23.6075 33.3303 23.5347C33.1209 23.4619 32.8958 23.4462 32.6782 23.4891Z" fill="#C0AEE7"/>
</svg>
