<svg width="40" height="40" viewBox="0 0 40 40" fill="none" xmlns="http://www.w3.org/2000/svg">
<path d="M37.1876 15C37.1876 15.2486 37.0888 15.4871 36.913 15.6629C36.7372 15.8387 36.4987 15.9375 36.2501 15.9375H33.4376V18.75C33.4376 18.9986 33.3388 19.2371 33.163 19.4129C32.9872 19.5887 32.7487 19.6875 32.5001 19.6875C32.2514 19.6875 32.013 19.5887 31.8372 19.4129C31.6613 19.2371 31.5626 18.9986 31.5626 18.75V15.9375H28.7501C28.5014 15.9375 28.263 15.8387 28.0872 15.6629C27.9113 15.4871 27.8126 15.2486 27.8126 15C27.8126 14.7514 27.9113 14.5129 28.0872 14.3371C28.263 14.1613 28.5014 14.0625 28.7501 14.0625H31.5626V11.25C31.5626 11.0014 31.6613 10.7629 31.8372 10.5871C32.013 10.4113 32.2514 10.3125 32.5001 10.3125C32.7487 10.3125 32.9872 10.4113 33.163 10.5871C33.3388 10.7629 33.4376 11.0014 33.4376 11.25V14.0625H36.2501C36.4987 14.0625 36.7372 14.1613 36.913 14.3371C37.0888 14.5129 37.1876 14.7514 37.1876 15ZM22.5001 8.4375H24.0626V10C24.0626 10.2486 24.1613 10.4871 24.3372 10.6629C24.513 10.8387 24.7514 10.9375 25.0001 10.9375C25.2487 10.9375 25.4872 10.8387 25.663 10.6629C25.8388 10.4871 25.9376 10.2486 25.9376 10V8.4375H27.5001C27.7487 8.4375 27.9872 8.33873 28.163 8.16291C28.3388 7.9871 28.4376 7.74864 28.4376 7.5C28.4376 7.25136 28.3388 7.0129 28.163 6.83709C27.9872 6.66127 27.7487 6.5625 27.5001 6.5625H25.9376V5C25.9376 4.75136 25.8388 4.5129 25.663 4.33709C25.4872 4.16127 25.2487 4.0625 25.0001 4.0625C24.7514 4.0625 24.513 4.16127 24.3372 4.33709C24.1613 4.5129 24.0626 4.75136 24.0626 5V6.5625H22.5001C22.2514 6.5625 22.013 6.66127 21.8372 6.83709C21.6613 7.0129 21.5626 7.25136 21.5626 7.5C21.5626 7.74864 21.6613 7.9871 21.8372 8.16291C22.013 8.33873 22.2514 8.4375 22.5001 8.4375ZM33.6329 24.1063C33.7419 24.2333 33.815 24.3873 33.8444 24.5522C33.8738 24.7171 33.8585 24.8868 33.8001 25.0438C32.9517 27.3607 31.5333 29.4266 29.6757 31.0507C27.8182 32.6749 25.5815 33.8048 23.172 34.3364C20.7625 34.8679 18.2579 34.7838 15.8895 34.0919C13.5211 33.4 11.3651 32.1226 9.6207 30.3776C7.87627 28.6326 6.59956 26.4762 5.90846 24.1076C5.21735 21.7389 5.13412 19.2343 5.66643 16.825C6.19875 14.4157 7.32947 12.1793 8.9542 10.3223C10.5789 8.46535 12.6453 7.04761 14.9626 6.2C15.1186 6.14323 15.2869 6.12891 15.4503 6.15852C15.6137 6.18812 15.7662 6.26058 15.8924 6.36849C16.0186 6.47641 16.1139 6.61589 16.1685 6.7727C16.2231 6.9295 16.2351 7.09799 16.2032 7.26094C15.8014 9.30001 15.856 11.4027 16.3631 13.4182C16.8702 15.4337 17.8172 17.3119 19.1361 18.9181C20.455 20.5242 22.1132 21.8185 23.9915 22.7079C25.8698 23.5974 27.9218 24.06 30.0001 24.0625C30.9195 24.0628 31.8369 23.9739 32.7391 23.7969C32.9022 23.7646 33.0708 23.7762 33.2279 23.8306C33.3849 23.885 33.5247 23.9801 33.6329 24.1063ZM31.3876 25.8781C30.9271 25.9177 30.4646 25.9375 30.0001 25.9375C25.7747 25.9325 21.7238 24.2518 18.736 21.264C15.7482 18.2762 14.0675 14.2254 14.0626 10C14.0626 9.53646 14.0824 9.07396 14.1219 8.6125C12.3315 9.53815 10.7848 10.8731 9.60731 12.509C8.42986 14.1448 7.65495 16.0354 7.34555 18.027C7.03614 20.0187 7.20097 22.0552 7.82665 23.9712C8.45232 25.8872 9.52118 27.6285 10.9464 29.0537C12.3716 30.4789 14.1129 31.5477 16.0289 32.1734C17.9448 32.7991 19.9814 32.9639 21.973 32.6545C23.9647 32.3451 25.8552 31.5702 27.4911 30.3928C29.1269 29.2153 30.4619 27.6685 31.3876 25.8781Z" fill="#C0AEE7"/>
</svg>
