<svg width="26" height="26" viewBox="0 0 26 26" fill="none" xmlns="http://www.w3.org/2000/svg">
<path d="M24.375 9.75C24.375 9.96549 24.2894 10.1722 24.137 10.3245C23.9846 10.4769 23.778 10.5625 23.5625 10.5625H21.9375V12.1875C21.9375 12.403 21.8519 12.6097 21.6995 12.762C21.5471 12.9144 21.3405 13 21.125 13C20.9095 13 20.7028 12.9144 20.5505 12.762C20.3981 12.6097 20.3125 12.403 20.3125 12.1875V10.5625H18.6875C18.472 10.5625 18.2653 10.4769 18.113 10.3245C17.9606 10.1722 17.875 9.96549 17.875 9.75C17.875 9.53451 17.9606 9.32785 18.113 9.17548C18.2653 9.0231 18.472 8.9375 18.6875 8.9375H20.3125V7.3125C20.3125 7.09701 20.3981 6.89035 20.5505 6.73798C20.7028 6.5856 20.9095 6.5 21.125 6.5C21.3405 6.5 21.5471 6.5856 21.6995 6.73798C21.8519 6.89035 21.9375 7.09701 21.9375 7.3125V8.9375H23.5625C23.778 8.9375 23.9846 9.0231 24.137 9.17548C24.2894 9.32785 24.375 9.53451 24.375 9.75ZM14.625 5.6875H15.4375V6.5C15.4375 6.71549 15.5231 6.92215 15.6755 7.07452C15.8278 7.2269 16.0345 7.3125 16.25 7.3125C16.4655 7.3125 16.6721 7.2269 16.8245 7.07452C16.9769 6.92215 17.0625 6.71549 17.0625 6.5V5.6875H17.875C18.0905 5.6875 18.2971 5.6019 18.4495 5.44952C18.6019 5.29715 18.6875 5.09049 18.6875 4.875C18.6875 4.65951 18.6019 4.45285 18.4495 4.30048C18.2971 4.1481 18.0905 4.0625 17.875 4.0625H17.0625V3.25C17.0625 3.03451 16.9769 2.82785 16.8245 2.67548C16.6721 2.5231 16.4655 2.4375 16.25 2.4375C16.0345 2.4375 15.8278 2.5231 15.6755 2.67548C15.5231 2.82785 15.4375 3.03451 15.4375 3.25V4.0625H14.625C14.4095 4.0625 14.2028 4.1481 14.0505 4.30048C13.8981 4.45285 13.8125 4.65951 13.8125 4.875C13.8125 5.09049 13.8981 5.29715 14.0505 5.44952C14.2028 5.6019 14.4095 5.6875 14.625 5.6875ZM21.2408 15.2679C19.7996 15.5526 18.3105 15.478 16.9051 15.0507C15.4996 14.6234 14.221 13.8564 13.1823 12.8177C12.1435 11.779 11.3766 10.5004 10.9493 9.09491C10.522 7.68944 10.4474 6.20036 10.7321 4.75922C10.76 4.61779 10.7497 4.47149 10.7024 4.33532C10.6551 4.19916 10.5724 4.07803 10.4628 3.98437C10.3533 3.89071 10.2207 3.82789 10.0789 3.80235C9.937 3.77682 9.79089 3.78949 9.65553 3.83906C8.11699 4.40165 6.74501 5.34282 5.66627 6.57567C4.58753 7.80852 3.83682 9.2933 3.48345 10.8929C3.13008 12.4925 3.18545 14.1554 3.64444 15.7279C4.10343 17.3005 4.95126 18.732 6.10962 19.8904C7.26797 21.0487 8.69953 21.8965 10.2721 22.3555C11.8446 22.8145 13.5075 22.8699 15.1071 22.5165C16.7067 22.1632 18.1915 21.4124 19.4243 20.3337C20.6572 19.255 21.5983 17.883 22.1609 16.3445C22.2105 16.2091 22.2232 16.063 22.1976 15.9211C22.1721 15.7792 22.1093 15.6467 22.0156 15.5371C21.922 15.4276 21.8008 15.3449 21.6647 15.2975C21.5285 15.2502 21.3822 15.24 21.2408 15.2679Z" fill="#C0AEE7"/>
</svg>
