<svg width="26" height="26" viewBox="0 0 26 26" fill="none" xmlns="http://www.w3.org/2000/svg">
<path d="M24.1719 9.75C24.1719 9.91162 24.1077 10.0666 23.9935 10.1809C23.8792 10.2952 23.7242 10.3594 23.5626 10.3594H21.7344V12.1875C21.7344 12.3491 21.6702 12.5041 21.556 12.6184C21.4417 12.7327 21.2867 12.7969 21.1251 12.7969C20.9634 12.7969 20.8084 12.7327 20.6942 12.6184C20.5799 12.5041 20.5157 12.3491 20.5157 12.1875V10.3594H18.6876C18.5259 10.3594 18.3709 10.2952 18.2567 10.1809C18.1424 10.0666 18.0782 9.91162 18.0782 9.75C18.0782 9.58838 18.1424 9.43339 18.2567 9.31911C18.3709 9.20483 18.5259 9.14062 18.6876 9.14062H20.5157V7.3125C20.5157 7.15088 20.5799 6.99589 20.6942 6.88161C20.8084 6.76733 20.9634 6.70312 21.1251 6.70312C21.2867 6.70312 21.4417 6.76733 21.556 6.88161C21.6702 6.99589 21.7344 7.15088 21.7344 7.3125V9.14062H23.5626C23.7242 9.14062 23.8792 9.20483 23.9935 9.31911C24.1077 9.43339 24.1719 9.58838 24.1719 9.75ZM14.6251 5.48437H15.6407V6.5C15.6407 6.66162 15.7049 6.81661 15.8192 6.93089C15.9334 7.04517 16.0884 7.10937 16.2501 7.10937C16.4117 7.10937 16.5667 7.04517 16.6809 6.93089C16.7952 6.81661 16.8594 6.66162 16.8594 6.5V5.48437H17.8751C18.0367 5.48437 18.1917 5.42017 18.3059 5.30589C18.4202 5.19161 18.4844 5.03662 18.4844 4.875C18.4844 4.71338 18.4202 4.55839 18.3059 4.44411C18.1917 4.32983 18.0367 4.26562 17.8751 4.26562H16.8594V3.25C16.8594 3.08838 16.7952 2.93339 16.6809 2.81911C16.5667 2.70483 16.4117 2.64062 16.2501 2.64062C16.0884 2.64062 15.9334 2.70483 15.8192 2.81911C15.7049 2.93339 15.6407 3.08838 15.6407 3.25V4.26562H14.6251C14.4634 4.26562 14.3084 4.32983 14.1942 4.44411C14.0799 4.55839 14.0157 4.71338 14.0157 4.875C14.0157 5.03662 14.0799 5.19161 14.1942 5.30589C14.3084 5.42017 14.4634 5.48437 14.6251 5.48437ZM21.8614 15.6691C21.9323 15.7517 21.9797 15.8518 21.9989 15.9589C22.018 16.0661 22.008 16.1764 21.9701 16.2784C21.4186 17.7845 20.4966 19.1273 19.2892 20.183C18.0819 21.2387 16.628 21.9731 15.0618 22.3186C13.4956 22.6641 11.8677 22.6095 10.3282 22.1597C8.78872 21.71 7.38735 20.8797 6.25347 19.7454C5.11959 18.6112 4.28973 17.2095 3.84051 15.6699C3.39129 14.1303 3.33719 12.5023 3.68319 10.9363C4.0292 9.3702 4.76417 7.91656 5.82024 6.70952C6.87632 5.50248 8.21946 4.58095 9.72568 4.03C9.8271 3.9931 9.9365 3.98379 10.0427 4.00304C10.1489 4.02228 10.2481 4.06938 10.3301 4.13952C10.4121 4.20966 10.474 4.30033 10.5095 4.40225C10.545 4.50417 10.5528 4.61369 10.5321 4.71961C10.2709 6.04501 10.3064 7.41179 10.636 8.72184C10.9657 10.0319 11.5812 11.2527 12.4385 12.2967C13.2958 13.3407 14.3736 14.182 15.5945 14.7601C16.8154 15.3383 18.1492 15.639 19.5001 15.6406C20.0977 15.6408 20.694 15.583 21.2804 15.468C21.3864 15.447 21.496 15.4546 21.5981 15.4899C21.7002 15.5252 21.7911 15.5871 21.8614 15.6691ZM20.4019 16.8208C20.1027 16.8465 19.802 16.8594 19.5001 16.8594C16.7536 16.8561 14.1205 15.7637 12.1784 13.8216C10.2364 11.8796 9.1439 9.24649 9.14068 6.5C9.14068 6.1987 9.15354 5.89807 9.17927 5.59812C8.01551 6.1998 7.01011 7.06754 6.24477 8.13084C5.47942 9.19414 4.97573 10.423 4.77462 11.7176C4.57351 13.0121 4.68065 14.3359 5.08733 15.5813C5.49402 16.8267 6.18878 17.9585 7.11516 18.8849C8.04154 19.8113 9.1734 20.506 10.4188 20.9127C11.6642 21.3194 12.9879 21.4265 14.2825 21.2254C15.5771 21.0243 16.8059 20.5206 17.8692 19.7553C18.9325 18.9899 19.8003 17.9845 20.4019 16.8208Z" fill="#C0AEE7"/>
</svg>
