<svg width="366" height="353" viewBox="0 0 366 353" fill="none" xmlns="http://www.w3.org/2000/svg">
<path d="M0 176.5C0 104.847 0 69.0209 17.5133 43.4673C24.4892 33.2888 33.2888 24.4892 43.4673 17.5133C69.0209 0 104.847 0 176.5 0H326C344.856 0 354.284 0 360.142 5.85786C366 11.7157 366 21.1438 366 40V170C366 247.866 366 286.8 345.494 313.668C340.086 320.755 333.755 327.086 326.668 332.494C299.8 353 260.866 353 183 353H176.5C104.847 353 69.0209 353 43.4673 335.487C33.2888 328.511 24.4892 319.711 17.5133 309.533C0 283.979 0 248.153 0 176.5V176.5Z" fill="#F2F2F2"/>
</svg>
