<svg width="444" height="326" viewBox="0 0 444 326" fill="none" xmlns="http://www.w3.org/2000/svg">
<path d="M0 40C0 21.1438 0 11.7157 5.85786 5.85786C11.7157 0 21.1438 0 40 0H281C339.838 0 369.257 0 391.486 11.9937C408.656 21.2584 422.742 35.3438 432.006 52.5144C444 74.7425 444 104.162 444 163V163C444 221.838 444 251.257 432.006 273.486C422.742 290.656 408.656 304.742 391.486 314.006C369.257 326 339.838 326 281 326H200C105.719 326 58.5786 326 29.2893 296.711C0 267.421 0 220.281 0 126V40Z" fill="#F2F2F2"/>
</svg>
