<svg width="59" height="59" viewBox="0 0 59 59" fill="none" xmlns="http://www.w3.org/2000/svg">
<mask id="mask0_263_2" style="mask-type:alpha" maskUnits="userSpaceOnUse" x="0" y="0" width="59" height="59">
<circle cx="29.5" cy="29.5" r="29.5" fill="#735EA0"/>
</mask>
<g mask="url(#mask0_263_2)">
<g filter="url(#filter0_b_263_2)">
<circle cx="29.5" cy="29.5" r="29.5" fill="#C0AEE7"/>
</g>
</g>
<path d="M29.5 16.0938C26.8485 16.0938 24.2565 16.88 22.0519 18.3531C19.8472 19.8262 18.1289 21.92 17.1142 24.3696C16.0996 26.8193 15.8341 29.5149 16.3514 32.1154C16.8686 34.716 18.1455 37.1048 20.0204 38.9797C21.8953 40.8545 24.284 42.1314 26.8846 42.6487C29.4851 43.1659 32.1807 42.9004 34.6304 41.8858C37.08 40.8711 39.1738 39.1528 40.6469 36.9481C42.12 34.7435 42.9063 32.1515 42.9063 29.5C42.9025 25.9456 41.4889 22.5378 38.9755 20.0245C36.4622 17.5111 33.0544 16.0975 29.5 16.0938ZM29.5 40.8438C27.2564 40.8438 25.0632 40.1785 23.1978 38.932C21.3323 37.6855 19.8783 35.9139 19.0197 33.8411C18.1612 31.7683 17.9365 29.4874 18.3742 27.2869C18.8119 25.0865 19.8923 23.0652 21.4788 21.4788C23.0652 19.8923 25.0865 18.8119 27.287 18.3742C29.4874 17.9365 31.7683 18.1612 33.8411 19.0197C35.9139 19.8783 37.6855 21.3323 38.932 23.1978C40.1785 25.0632 40.8438 27.2564 40.8438 29.5C40.8403 32.5075 39.6441 35.3908 37.5175 37.5175C35.3909 39.6441 32.5075 40.8403 29.5 40.8438ZM35.3859 26.7079C35.4817 26.8037 35.5578 26.9174 35.6097 27.0426C35.6616 27.1678 35.6883 27.302 35.6883 27.4375C35.6883 27.573 35.6616 27.7072 35.6097 27.8324C35.5578 27.9576 35.4817 28.0713 35.3859 28.1671L30.2296 33.3234C30.1338 33.4192 30.0201 33.4953 29.8949 33.5472C29.7697 33.5991 29.6355 33.6258 29.5 33.6258C29.3645 33.6258 29.2303 33.5991 29.1051 33.5472C28.9799 33.4953 28.8662 33.4192 28.7704 33.3234L23.6141 28.1671C23.4206 27.9736 23.3119 27.7112 23.3119 27.4375C23.3119 27.1638 23.4206 26.9014 23.6141 26.7079C23.8077 26.5144 24.0701 26.4057 24.3438 26.4057C24.6174 26.4057 24.8799 26.5144 25.0734 26.7079L29.5 31.1358L33.9266 26.7079C34.0224 26.612 34.1362 26.5359 34.2613 26.484C34.3865 26.4322 34.5207 26.4054 34.6563 26.4054C34.7918 26.4054 34.926 26.4322 35.0512 26.484C35.1764 26.5359 35.2901 26.612 35.3859 26.7079Z" fill="white"/>
<defs>
<filter id="filter0_b_263_2" x="-3" y="-3" width="65" height="65" filterUnits="userSpaceOnUse" color-interpolation-filters="sRGB">
<feFlood flood-opacity="0" result="BackgroundImageFix"/>
<feGaussianBlur in="BackgroundImageFix" stdDeviation="1.5"/>
<feComposite in2="SourceAlpha" operator="in" result="effect1_backgroundBlur_263_2"/>
<feBlend mode="normal" in="SourceGraphic" in2="effect1_backgroundBlur_263_2" result="shape"/>
</filter>
</defs>
</svg>
