<svg width="80" height="80" viewBox="0 0 80 80" fill="none" xmlns="http://www.w3.org/2000/svg">
<g filter="url(#filter0_b_194_2)">
<circle cx="40" cy="40" r="40" fill="#735EA0"/>
</g>
<g filter="url(#filter1_b_194_2)">
<circle cx="40" cy="40" r="40" fill="#735EA0"/>
</g>
<path d="M40 21.3125C36.304 21.3125 32.6909 22.4085 29.6178 24.4619C26.5446 26.5153 24.1494 29.4339 22.735 32.8486C21.3206 36.2633 20.9505 40.0207 21.6716 43.6458C22.3926 47.2708 24.1725 50.6006 26.786 53.2141C29.3994 55.8276 32.7292 57.6074 36.3543 58.3284C39.9793 59.0495 43.7367 58.6794 47.1514 57.265C50.5661 55.8506 53.4847 53.4554 55.5381 50.3822C57.5915 47.3091 58.6875 43.696 58.6875 40C58.6823 35.0454 56.7117 30.2952 53.2083 26.7917C49.7048 23.2883 44.9546 21.3177 40 21.3125ZM40 55.8125C36.8726 55.8125 33.8154 54.8851 31.2151 53.1476C28.6147 51.4101 26.588 48.9405 25.3912 46.0512C24.1944 43.1618 23.8812 39.9825 24.4913 36.9151C25.1015 33.8478 26.6075 31.0303 28.8189 28.8189C31.0303 26.6075 33.8478 25.1015 36.9151 24.4913C39.9825 23.8812 43.1618 24.1943 46.0512 25.3912C48.9405 26.588 51.4101 28.6147 53.1476 31.215C54.8851 33.8154 55.8125 36.8726 55.8125 40C55.8078 44.1923 54.1403 48.2115 51.1759 51.1759C48.2115 54.1403 44.1923 55.8077 40 55.8125ZM48.2045 36.108C48.3382 36.2415 48.4442 36.4 48.5166 36.5745C48.5889 36.749 48.6261 36.9361 48.6261 37.125C48.6261 37.3139 48.5889 37.501 48.5166 37.6755C48.4442 37.85 48.3382 38.0085 48.2045 38.142L41.017 45.3295C40.8835 45.4632 40.725 45.5692 40.5505 45.6416C40.376 45.7139 40.1889 45.7511 40 45.7511C39.8111 45.7511 39.624 45.7139 39.4495 45.6416C39.275 45.5692 39.1165 45.4632 38.983 45.3295L31.7955 38.142C31.5257 37.8723 31.3742 37.5065 31.3742 37.125C31.3742 36.7435 31.5257 36.3777 31.7955 36.108C32.0652 35.8382 32.431 35.6867 32.8125 35.6867C33.194 35.6867 33.5598 35.8382 33.8295 36.108L40 42.2802L46.1705 36.108C46.304 35.9743 46.4625 35.8683 46.637 35.7959C46.8115 35.7236 46.9986 35.6864 47.1875 35.6864C47.3764 35.6864 47.5635 35.7236 47.738 35.7959C47.9125 35.8683 48.071 35.9743 48.2045 36.108Z" fill="#1B1B2C"/>
<defs>
<filter id="filter0_b_194_2" x="-3" y="-3" width="86" height="86" filterUnits="userSpaceOnUse" color-interpolation-filters="sRGB">
<feFlood flood-opacity="0" result="BackgroundImageFix"/>
<feGaussianBlur in="BackgroundImageFix" stdDeviation="1.5"/>
<feComposite in2="SourceAlpha" operator="in" result="effect1_backgroundBlur_194_2"/>
<feBlend mode="normal" in="SourceGraphic" in2="effect1_backgroundBlur_194_2" result="shape"/>
</filter>
<filter id="filter1_b_194_2" x="-3" y="-3" width="86" height="86" filterUnits="userSpaceOnUse" color-interpolation-filters="sRGB">
<feFlood flood-opacity="0" result="BackgroundImageFix"/>
<feGaussianBlur in="BackgroundImageFix" stdDeviation="1.5"/>
<feComposite in2="SourceAlpha" operator="in" result="effect1_backgroundBlur_194_2"/>
<feBlend mode="normal" in="SourceGraphic" in2="effect1_backgroundBlur_194_2" result="shape"/>
</filter>
</defs>
</svg>
