<svg width="38" height="38" viewBox="0 0 38 38" fill="none" xmlns="http://www.w3.org/2000/svg">
<path d="M17.5 5V1.25C17.5 0.918479 17.6317 0.600537 17.8661 0.366116C18.1005 0.131696 18.4185 0 18.75 0C19.0815 0 19.3995 0.131696 19.6339 0.366116C19.8683 0.600537 20 0.918479 20 1.25V5C20 5.33152 19.8683 5.64946 19.6339 5.88388C19.3995 6.1183 19.0815 6.25 18.75 6.25C18.4185 6.25 18.1005 6.1183 17.8661 5.88388C17.6317 5.64946 17.5 5.33152 17.5 5ZM18.75 8.75C16.7722 8.75 14.8388 9.33649 13.1943 10.4353C11.5498 11.5341 10.2681 13.0959 9.5112 14.9232C8.75433 16.7504 8.5563 18.7611 8.94215 20.7009C9.328 22.6407 10.2804 24.4225 11.6789 25.8211C13.0775 27.2196 14.8593 28.172 16.7991 28.5579C18.7389 28.9437 20.7496 28.7457 22.5768 27.9888C24.4041 27.2319 25.9659 25.9502 27.0647 24.3057C28.1635 22.6612 28.75 20.7278 28.75 18.75C28.7471 16.0987 27.6926 13.5569 25.8179 11.6821C23.9431 9.80739 21.4013 8.7529 18.75 8.75ZM7.86562 9.63438C8.10018 9.86893 8.41829 10.0007 8.75 10.0007C9.08171 10.0007 9.39983 9.86893 9.63438 9.63438C9.86893 9.39983 10.0007 9.08171 10.0007 8.75C10.0007 8.41829 9.86893 8.10018 9.63438 7.86562L7.13438 5.36562C6.89982 5.13107 6.58171 4.9993 6.25 4.9993C5.91829 4.99931 5.60018 5.13107 5.36562 5.36562C5.13107 5.60018 4.99931 5.91829 4.9993 6.25C4.9993 6.58171 5.13107 6.89982 5.36562 7.13438L7.86562 9.63438ZM7.86562 27.8656L5.36562 30.3656C5.13107 30.6002 4.9993 30.9183 4.9993 31.25C4.99931 31.5817 5.13107 31.8998 5.36562 32.1344C5.60018 32.3689 5.91829 32.5007 6.25 32.5007C6.58171 32.5007 6.89982 32.3689 7.13438 32.1344L9.63438 29.6344C9.75051 29.5182 9.84264 29.3804 9.90549 29.2286C9.96835 29.0769 10.0007 28.9142 10.0007 28.75C10.0007 28.5858 9.96835 28.4231 9.90549 28.2714C9.84264 28.1196 9.75051 27.9818 9.63438 27.8656C9.51824 27.7495 9.38036 27.6574 9.22862 27.5945C9.07688 27.5317 8.91424 27.4993 8.75 27.4993C8.58576 27.4993 8.42312 27.5317 8.27138 27.5945C8.11964 27.6574 7.98176 27.7495 7.86562 27.8656ZM28.75 10C28.9142 10.0001 29.0768 9.96791 29.2286 9.90517C29.3803 9.84243 29.5182 9.75042 29.6344 9.63438L32.1344 7.13438C32.3689 6.89982 32.5007 6.58171 32.5007 6.25C32.5007 5.91829 32.3689 5.60018 32.1344 5.36562C31.8998 5.13107 31.5817 4.99931 31.25 4.9993C30.9183 4.9993 30.6002 5.13107 30.3656 5.36562L27.8656 7.86562C27.6906 8.04044 27.5714 8.26326 27.5231 8.50587C27.4748 8.74847 27.4995 8.99996 27.5942 9.22849C27.6889 9.45702 27.8493 9.65231 28.055 9.78965C28.2608 9.92699 28.5026 10.0002 28.75 10ZM29.6344 27.8656C29.3998 27.6311 29.0817 27.4993 28.75 27.4993C28.4183 27.4993 28.1002 27.6311 27.8656 27.8656C27.6311 28.1002 27.4993 28.4183 27.4993 28.75C27.4993 29.0817 27.6311 29.3998 27.8656 29.6344L30.3656 32.1344C30.4818 32.2505 30.6196 32.3426 30.7714 32.4055C30.9231 32.4683 31.0858 32.5007 31.25 32.5007C31.4142 32.5007 31.5769 32.4683 31.7286 32.4055C31.8804 32.3426 32.0182 32.2505 32.1344 32.1344C32.2505 32.0182 32.3426 31.8804 32.4055 31.7286C32.4683 31.5769 32.5007 31.4142 32.5007 31.25C32.5007 31.0858 32.4683 30.9231 32.4055 30.7714C32.3426 30.6196 32.2505 30.4818 32.1344 30.3656L29.6344 27.8656ZM6.25 18.75C6.25 18.4185 6.1183 18.1005 5.88388 17.8661C5.64946 17.6317 5.33152 17.5 5 17.5H1.25C0.918479 17.5 0.600537 17.6317 0.366116 17.8661C0.131696 18.1005 0 18.4185 0 18.75C0 19.0815 0.131696 19.3995 0.366116 19.6339C0.600537 19.8683 0.918479 20 1.25 20H5C5.33152 20 5.64946 19.8683 5.88388 19.6339C6.1183 19.3995 6.25 19.0815 6.25 18.75ZM18.75 31.25C18.4185 31.25 18.1005 31.3817 17.8661 31.6161C17.6317 31.8505 17.5 32.1685 17.5 32.5V36.25C17.5 36.5815 17.6317 36.8995 17.8661 37.1339C18.1005 37.3683 18.4185 37.5 18.75 37.5C19.0815 37.5 19.3995 37.3683 19.6339 37.1339C19.8683 36.8995 20 36.5815 20 36.25V32.5C20 32.1685 19.8683 31.8505 19.6339 31.6161C19.3995 31.3817 19.0815 31.25 18.75 31.25ZM36.25 17.5H32.5C32.1685 17.5 31.8505 17.6317 31.6161 17.8661C31.3817 18.1005 31.25 18.4185 31.25 18.75C31.25 19.0815 31.3817 19.3995 31.6161 19.6339C31.8505 19.8683 32.1685 20 32.5 20H36.25C36.5815 20 36.8995 19.8683 37.1339 19.6339C37.3683 19.3995 37.5 19.0815 37.5 18.75C37.5 18.4185 37.3683 18.1005 37.1339 17.8661C36.8995 17.6317 36.5815 17.5 36.25 17.5Z" fill="#735EA0"/>
</svg>
