<svg width="40" height="40" viewBox="0 0 40 40" fill="none" xmlns="http://www.w3.org/2000/svg">
<path d="M19.0625 6.25V2.5C19.0625 2.25136 19.1613 2.0129 19.3371 1.83709C19.5129 1.66127 19.7514 1.5625 20 1.5625C20.2486 1.5625 20.4871 1.66127 20.6629 1.83709C20.8387 2.0129 20.9375 2.25136 20.9375 2.5V6.25C20.9375 6.49864 20.8387 6.7371 20.6629 6.91291C20.4871 7.08873 20.2486 7.1875 20 7.1875C19.7514 7.1875 19.5129 7.08873 19.3371 6.91291C19.1613 6.7371 19.0625 6.49864 19.0625 6.25ZM29.6875 20C29.6875 21.916 29.1193 23.789 28.0549 25.3821C26.9904 26.9752 25.4774 28.2169 23.7072 28.9501C21.9371 29.6833 19.9893 29.8752 18.1101 29.5014C16.2309 29.1276 14.5047 28.2049 13.1499 26.8501C11.7951 25.4953 10.8724 23.7691 10.4986 21.8899C10.1248 20.0107 10.3167 18.0629 11.0499 16.2928C11.7831 14.5226 13.0248 13.0096 14.6179 11.9451C16.211 10.8807 18.084 10.3125 20 10.3125C22.5684 10.3154 25.0308 11.337 26.8469 13.1531C28.663 14.9692 29.6846 17.4316 29.6875 20ZM27.8125 20C27.8125 18.4548 27.3543 16.9444 26.4959 15.6596C25.6374 14.3748 24.4173 13.3735 22.9897 12.7822C21.5622 12.1909 19.9913 12.0362 18.4759 12.3376C16.9604 12.6391 15.5683 13.3831 14.4757 14.4757C13.3831 15.5683 12.6391 16.9604 12.3376 18.4759C12.0362 19.9913 12.1909 21.5622 12.7822 22.9897C13.3735 24.4173 14.3748 25.6374 15.6596 26.4959C16.9444 27.3543 18.4548 27.8125 20 27.8125C22.0712 27.81 24.0569 26.9861 25.5215 25.5215C26.9861 24.0569 27.81 22.0712 27.8125 20ZM9.3375 10.6625C9.42333 10.7546 9.52683 10.8285 9.64183 10.8797C9.75683 10.931 9.88097 10.9585 10.0068 10.9607C10.1327 10.963 10.2578 10.9398 10.3745 10.8927C10.4912 10.8455 10.5973 10.7753 10.6863 10.6863C10.7753 10.5973 10.8455 10.4912 10.8927 10.3745C10.9398 10.2578 10.963 10.1327 10.9607 10.0068C10.9585 9.88097 10.931 9.75683 10.8797 9.64183C10.8285 9.52683 10.7546 9.42333 10.6625 9.3375L8.1625 6.8375C7.98478 6.6719 7.74972 6.58175 7.50685 6.58603C7.26397 6.59032 7.03224 6.68871 6.86047 6.86047C6.68871 7.03224 6.59032 7.26397 6.58603 7.50685C6.58175 7.74972 6.6719 7.98478 6.8375 8.1625L9.3375 10.6625ZM9.3375 29.3375L6.8375 31.8375C6.74539 31.9233 6.67151 32.0268 6.62027 32.1418C6.56903 32.2568 6.54148 32.381 6.53926 32.5068C6.53704 32.6327 6.5602 32.7578 6.60735 32.8745C6.6545 32.9912 6.72468 33.0973 6.8137 33.1863C6.90273 33.2753 7.00877 33.3455 7.1255 33.3927C7.24224 33.4398 7.36727 33.463 7.49315 33.4607C7.61903 33.4585 7.74317 33.431 7.85817 33.3797C7.97317 33.3285 8.07667 33.2546 8.1625 33.1625L10.6625 30.6625C10.7546 30.5767 10.8285 30.4732 10.8797 30.3582C10.931 30.2432 10.9585 30.119 10.9607 29.9932C10.963 29.8673 10.9398 29.7422 10.8927 29.6255C10.8455 29.5088 10.7753 29.4027 10.6863 29.3137C10.5973 29.2247 10.4912 29.1545 10.3745 29.1073C10.2578 29.0602 10.1327 29.037 10.0068 29.0393C9.88097 29.0415 9.75683 29.069 9.64183 29.1203C9.52683 29.1715 9.42333 29.2454 9.3375 29.3375ZM30 10.9375C30.2486 10.9373 30.4869 10.8384 30.6625 10.6625L33.1625 8.1625C33.3281 7.98478 33.4183 7.74972 33.414 7.50685C33.4097 7.26397 33.3113 7.03224 33.1395 6.86047C32.9678 6.68871 32.736 6.59032 32.4932 6.58603C32.2503 6.58175 32.0152 6.6719 31.8375 6.8375L29.3375 9.3375C29.2066 9.46861 29.1174 9.63558 29.0813 9.81733C29.0452 9.99908 29.0638 10.1875 29.1346 10.3587C29.2055 10.5299 29.3256 10.6762 29.4796 10.7792C29.6336 10.8823 29.8147 10.9373 30 10.9375ZM30.6625 29.3375C30.4848 29.1719 30.2497 29.0817 30.0068 29.086C29.764 29.0903 29.5322 29.1887 29.3605 29.3605C29.1887 29.5322 29.0903 29.764 29.086 30.0068C29.0817 30.2497 29.1719 30.4848 29.3375 30.6625L31.8375 33.1625C32.0152 33.3281 32.2503 33.4183 32.4932 33.414C32.736 33.4097 32.9678 33.3113 33.1395 33.1395C33.3113 32.9678 33.4097 32.736 33.414 32.4932C33.4183 32.2503 33.3281 32.0152 33.1625 31.8375L30.6625 29.3375ZM7.1875 20C7.1875 19.7514 7.08873 19.5129 6.91291 19.3371C6.7371 19.1613 6.49864 19.0625 6.25 19.0625H2.5C2.25136 19.0625 2.0129 19.1613 1.83709 19.3371C1.66127 19.5129 1.5625 19.7514 1.5625 20C1.5625 20.2486 1.66127 20.4871 1.83709 20.6629C2.0129 20.8387 2.25136 20.9375 2.5 20.9375H6.25C6.49864 20.9375 6.7371 20.8387 6.91291 20.6629C7.08873 20.4871 7.1875 20.2486 7.1875 20ZM20 32.8125C19.7514 32.8125 19.5129 32.9113 19.3371 33.0871C19.1613 33.2629 19.0625 33.5014 19.0625 33.75V37.5C19.0625 37.7486 19.1613 37.9871 19.3371 38.1629C19.5129 38.3387 19.7514 38.4375 20 38.4375C20.2486 38.4375 20.4871 38.3387 20.6629 38.1629C20.8387 37.9871 20.9375 37.7486 20.9375 37.5V33.75C20.9375 33.5014 20.8387 33.2629 20.6629 33.0871C20.4871 32.9113 20.2486 32.8125 20 32.8125ZM37.5 19.0625H33.75C33.5014 19.0625 33.2629 19.1613 33.0871 19.3371C32.9113 19.5129 32.8125 19.7514 32.8125 20C32.8125 20.2486 32.9113 20.4871 33.0871 20.6629C33.2629 20.8387 33.5014 20.9375 33.75 20.9375H37.5C37.7486 20.9375 37.9871 20.8387 38.1629 20.6629C38.3387 20.4871 38.4375 20.2486 38.4375 20C38.4375 19.7514 38.3387 19.5129 38.1629 19.3371C37.9871 19.1613 37.7486 19.0625 37.5 19.0625Z" fill="#735EA0"/>
</svg>
