<svg width="26" height="26" viewBox="0 0 26 26" fill="none" xmlns="http://www.w3.org/2000/svg">
<path d="M12.3906 4.0625V1.625C12.3906 1.46338 12.4548 1.30839 12.5691 1.19411C12.6834 1.07983 12.8384 1.01563 13 1.01562C13.1616 1.01562 13.3166 1.07983 13.4309 1.19411C13.5452 1.30839 13.6094 1.46338 13.6094 1.625V4.0625C13.6094 4.22412 13.5452 4.37911 13.4309 4.49339C13.3166 4.60767 13.1616 4.67187 13 4.67188C12.8384 4.67187 12.6834 4.60767 12.5691 4.49339C12.4548 4.37911 12.3906 4.22412 12.3906 4.0625ZM19.2969 13C19.2969 14.2454 18.9276 15.4628 18.2357 16.4984C17.5438 17.5339 16.5603 18.341 15.4097 18.8176C14.2591 19.2941 12.993 19.4188 11.7715 19.1759C10.5501 18.9329 9.42807 18.3332 8.54744 17.4526C7.6668 16.5719 7.06708 15.4499 6.82412 14.2285C6.58115 13.007 6.70585 11.7409 7.18245 10.5903C7.65904 9.43969 8.46613 8.45625 9.50164 7.76434C10.5372 7.07243 11.7546 6.70312 13 6.70312C14.6695 6.70501 16.27 7.36903 17.4505 8.54952C18.631 9.73 19.295 11.3305 19.2969 13ZM18.0781 13C18.0781 11.9956 17.7803 11.0138 17.2223 10.1787C16.6643 9.34365 15.8712 8.69278 14.9433 8.30842C14.0154 7.92407 12.9944 7.82351 12.0093 8.01945C11.0242 8.21539 10.1194 8.69903 9.40922 9.40922C8.69903 10.1194 8.21539 11.0242 8.01945 12.0093C7.82351 12.9944 7.92407 14.0154 8.30842 14.9433C8.69278 15.8712 9.34365 16.6643 10.1787 17.2223C11.0138 17.7803 11.9956 18.0781 13 18.0781C14.3463 18.0765 15.637 17.541 16.589 16.589C17.541 15.637 18.0765 14.3463 18.0781 13ZM6.06937 6.93062C6.12516 6.9905 6.19244 7.03852 6.26719 7.07182C6.34194 7.10513 6.42263 7.12304 6.50445 7.12448C6.58627 7.12592 6.66755 7.11087 6.74342 7.08022C6.8193 7.04958 6.88823 7.00396 6.94609 6.94609C7.00396 6.88823 7.04958 6.8193 7.08022 6.74342C7.11087 6.66755 7.12592 6.58627 7.12448 6.50445C7.12304 6.42263 7.10513 6.34194 7.07182 6.26719C7.03852 6.19244 6.9905 6.12516 6.93062 6.06937L5.30563 4.44437C5.19011 4.33673 5.03732 4.27813 4.87945 4.28092C4.72158 4.28371 4.57096 4.34766 4.45931 4.45931C4.34766 4.57096 4.28371 4.72158 4.28092 4.87945C4.27813 5.03732 4.33673 5.19011 4.44437 5.30563L6.06937 6.93062ZM6.06937 19.0694L4.44437 20.6944C4.3845 20.7502 4.33648 20.8174 4.30318 20.8922C4.26987 20.9669 4.25196 21.0476 4.25052 21.1295C4.24908 21.2113 4.26413 21.2925 4.29478 21.3684C4.32542 21.4443 4.37104 21.5132 4.42891 21.5711C4.48677 21.629 4.5557 21.6746 4.63158 21.7052C4.70745 21.7359 4.78873 21.7509 4.87055 21.7495C4.95237 21.748 5.03306 21.7301 5.10781 21.6968C5.18256 21.6635 5.24984 21.6155 5.30563 21.5556L6.93062 19.9306C6.9905 19.8748 7.03852 19.8076 7.07182 19.7328C7.10513 19.6581 7.12304 19.5774 7.12448 19.4955C7.12592 19.4137 7.11087 19.3325 7.08022 19.2566C7.04958 19.1807 7.00396 19.1118 6.94609 19.0539C6.88823 18.996 6.8193 18.9504 6.74342 18.9198C6.66755 18.8891 6.58627 18.8741 6.50445 18.8755C6.42263 18.877 6.34194 18.8949 6.26719 18.9282C6.19244 18.9615 6.12516 19.0095 6.06937 19.0694ZM19.5 7.10938C19.6616 7.10923 19.8165 7.04494 19.9306 6.93062L21.5556 5.30563C21.6633 5.19011 21.7219 5.03732 21.7191 4.87945C21.7163 4.72158 21.6523 4.57096 21.5407 4.45931C21.429 4.34766 21.2784 4.28371 21.1205 4.28092C20.9627 4.27813 20.8099 4.33673 20.6944 4.44437L19.0694 6.06937C18.9843 6.1546 18.9263 6.26313 18.9028 6.38126C18.8794 6.4994 18.8914 6.62184 18.9375 6.73313C18.9836 6.84441 19.0616 6.93954 19.1617 7.00651C19.2618 7.07347 19.3796 7.10927 19.5 7.10938ZM19.9306 19.0694C19.8151 18.9617 19.6623 18.9031 19.5045 18.9059C19.3466 18.9087 19.196 18.9727 19.0843 19.0843C18.9727 19.196 18.9087 19.3466 18.9059 19.5045C18.9031 19.6623 18.9617 19.8151 19.0694 19.9306L20.6944 21.5556C20.8099 21.6633 20.9627 21.7219 21.1205 21.7191C21.2784 21.7163 21.429 21.6523 21.5407 21.5407C21.6523 21.429 21.7163 21.2784 21.7191 21.1205C21.7219 20.9627 21.6633 20.8099 21.5556 20.6944L19.9306 19.0694ZM4.67188 13C4.67187 12.8384 4.60767 12.6834 4.49339 12.5691C4.37911 12.4548 4.22412 12.3906 4.0625 12.3906H1.625C1.46338 12.3906 1.30839 12.4548 1.19411 12.5691C1.07983 12.6834 1.01562 12.8384 1.01562 13C1.01562 13.1616 1.07983 13.3166 1.19411 13.4309C1.30839 13.5452 1.46338 13.6094 1.625 13.6094H4.0625C4.22412 13.6094 4.37911 13.5452 4.49339 13.4309C4.60767 13.3166 4.67187 13.1616 4.67188 13ZM13 21.3281C12.8384 21.3281 12.6834 21.3923 12.5691 21.5066C12.4548 21.6209 12.3906 21.7759 12.3906 21.9375V24.375C12.3906 24.5366 12.4548 24.6916 12.5691 24.8059C12.6834 24.9202 12.8384 24.9844 13 24.9844C13.1616 24.9844 13.3166 24.9202 13.4309 24.8059C13.5452 24.6916 13.6094 24.5366 13.6094 24.375V21.9375C13.6094 21.7759 13.5452 21.6209 13.4309 21.5066C13.3166 21.3923 13.1616 21.3281 13 21.3281ZM24.375 12.3906H21.9375C21.7759 12.3906 21.6209 12.4548 21.5066 12.5691C21.3923 12.6834 21.3281 12.8384 21.3281 13C21.3281 13.1616 21.3923 13.3166 21.5066 13.4309C21.6209 13.5452 21.7759 13.6094 21.9375 13.6094H24.375C24.5366 13.6094 24.6916 13.5452 24.8059 13.4309C24.9202 13.3166 24.9844 13.1616 24.9844 13C24.9844 12.8384 24.9202 12.6834 24.8059 12.5691C24.6916 12.4548 24.5366 12.3906 24.375 12.3906Z" fill="#735EA0"/>
</svg>
