<svg width="24" height="24" viewBox="0 0 24 24" fill="none" xmlns="http://www.w3.org/2000/svg">
<path d="M12 2.4375C10.1087 2.4375 8.25991 2.99833 6.68736 4.04907C5.11482 5.09981 3.88917 6.59327 3.16541 8.34059C2.44164 10.0879 2.25227 12.0106 2.62125 13.8656C2.99022 15.7205 3.90096 17.4244 5.2383 18.7617C6.57564 20.099 8.27951 21.0098 10.1345 21.3788C11.9894 21.7477 13.9121 21.5584 15.6594 20.8346C17.4067 20.1108 18.9002 18.8852 19.9509 17.3126C21.0017 15.7401 21.5625 13.8913 21.5625 12C21.5595 9.46478 20.5511 7.03425 18.7584 5.24158C16.9658 3.44891 14.5352 2.44048 12 2.4375ZM12 20.4375C10.3312 20.4375 8.69992 19.9426 7.31238 19.0155C5.92484 18.0884 4.84339 16.7706 4.20477 15.2289C3.56616 13.6871 3.39907 11.9906 3.72463 10.3539C4.05019 8.71721 4.85379 7.21379 6.03379 6.03379C7.2138 4.85378 8.71722 4.05019 10.3539 3.72462C11.9906 3.39906 13.6871 3.56615 15.2289 4.20477C16.7706 4.84338 18.0884 5.92484 19.0155 7.31238C19.9427 8.69992 20.4375 10.3312 20.4375 12C20.435 14.237 19.5453 16.3817 17.9635 17.9635C16.3817 19.5453 14.237 20.435 12 20.4375ZM16.1475 13.1025C16.2028 13.154 16.2471 13.2161 16.2778 13.2851C16.3086 13.3541 16.3251 13.4286 16.3264 13.5041C16.3278 13.5796 16.3139 13.6547 16.2856 13.7247C16.2573 13.7947 16.2152 13.8584 16.1618 13.9118C16.1084 13.9652 16.0447 14.0073 15.9747 14.0356C15.9047 14.0639 15.8296 14.0778 15.7541 14.0764C15.6786 14.0751 15.6041 14.0586 15.5351 14.0278C15.4661 13.9971 15.404 13.9528 15.3525 13.8975L12 10.5459L8.6475 13.8975C8.54087 13.9969 8.39984 14.051 8.25411 14.0484C8.10839 14.0458 7.96935 13.9868 7.86629 13.8837C7.76323 13.7807 7.70419 13.6416 7.70162 13.4959C7.69905 13.3502 7.75314 13.2091 7.8525 13.1025L11.6025 9.3525C11.708 9.24716 11.8509 9.18799 12 9.18799C12.1491 9.18799 12.292 9.24716 12.3975 9.3525L16.1475 13.1025Z" fill="#1B1B2C"/>
</svg>
