<svg width="20" height="20" viewBox="0 0 20 20" fill="none" xmlns="http://www.w3.org/2000/svg">
<path d="M13.3975 7.3975L10.795 10L13.3975 12.6025C13.4528 12.654 13.4971 12.7161 13.5278 12.7851C13.5586 12.8541 13.5751 12.9286 13.5764 13.0041C13.5778 13.0796 13.5639 13.1547 13.5356 13.2247C13.5073 13.2947 13.4652 13.3584 13.4118 13.4118C13.3584 13.4652 13.2947 13.5073 13.2247 13.5356C13.1547 13.5639 13.0796 13.5778 13.0041 13.5764C12.9286 13.5751 12.8541 13.5586 12.7851 13.5278C12.7161 13.4971 12.654 13.4528 12.6025 13.3975L10 10.795L7.3975 13.3975C7.29087 13.4969 7.14984 13.551 7.00411 13.5484C6.85839 13.5458 6.71935 13.4868 6.61629 13.3837C6.51323 13.2807 6.45419 13.1416 6.45162 12.9959C6.44905 12.8502 6.50314 12.7091 6.6025 12.6025L9.205 10L6.6025 7.3975C6.50314 7.29087 6.44905 7.14983 6.45162 7.00411C6.45419 6.85838 6.51323 6.71934 6.61629 6.61628C6.71935 6.51322 6.85839 6.45419 7.00411 6.45162C7.14984 6.44905 7.29087 6.50314 7.3975 6.6025L10 9.205L12.6025 6.6025C12.7091 6.50314 12.8502 6.44905 12.9959 6.45162C13.1416 6.45419 13.2807 6.51322 13.3837 6.61628C13.4868 6.71934 13.5458 6.85838 13.5484 7.00411C13.551 7.14983 13.4969 7.29087 13.3975 7.3975ZM19.5625 10C19.5625 11.8913 19.0017 13.7401 17.9509 15.3126C16.9002 16.8852 15.4067 18.1108 13.6594 18.8346C11.9121 19.5584 9.9894 19.7477 8.13445 19.3788C6.27951 19.0098 4.57564 18.099 3.2383 16.7617C1.90096 15.4244 0.990216 13.7205 0.621245 11.8656C0.252274 10.0106 0.441643 8.08791 1.16541 6.34059C1.88917 4.59327 3.11482 3.09981 4.68736 2.04907C6.25991 0.998331 8.10872 0.4375 10 0.4375C12.5352 0.440477 14.9658 1.44891 16.7584 3.24158C18.5511 5.03425 19.5595 7.46478 19.5625 10ZM18.4375 10C18.4375 8.33122 17.9427 6.69992 17.0155 5.31238C16.0884 3.92484 14.7706 2.84338 13.2289 2.20477C11.6871 1.56615 9.99064 1.39906 8.35393 1.72462C6.71722 2.05019 5.2138 2.85378 4.03379 4.03379C2.85379 5.21379 2.05019 6.71721 1.72463 8.35393C1.39907 9.99064 1.56616 11.6871 2.20477 13.2289C2.84339 14.7706 3.92484 16.0884 5.31238 17.0155C6.69992 17.9426 8.33122 18.4375 10 18.4375C12.237 18.435 14.3817 17.5453 15.9635 15.9635C17.5453 14.3817 18.435 12.237 18.4375 10Z" fill="white"/>
</svg>
